<svg xmlns="http://www.w3.org/2000/svg" width="20" height="20" fill="none"><path fill="#fff" d="M10 2.622c2.403 0 2.688.01 3.637.053 2.44.11 3.579 1.268 3.69 3.689.043.949.051 1.234.051 3.637 0 2.404-.009 2.688-.051 3.636-.112 2.42-1.248 3.579-3.69 3.69-.949.043-1.232.052-3.637.052-2.403 0-2.688-.009-3.637-.052-2.445-.112-3.578-1.275-3.689-3.69-.043-.949-.052-1.233-.052-3.637 0-2.403.01-2.687.052-3.637.112-2.42 1.248-3.578 3.69-3.689.949-.043 1.233-.052 3.636-.052zM10 1c-2.444 0-2.75.01-3.71.054-3.269.15-5.085 1.964-5.235 5.235C1.01 7.249 1 7.556 1 10s.01 2.751.054 3.711c.15 3.269 1.964 5.085 5.235 5.235.96.043 1.267.054 3.711.054s2.751-.01 3.711-.054c3.266-.15 5.086-1.963 5.234-5.235.044-.96.055-1.267.055-3.711s-.01-2.75-.054-3.71c-.147-3.266-1.963-5.085-5.234-5.235C12.75 1.01 12.444 1 10 1zm0 4.378a4.622 4.622 0 1 0 0 9.244 4.622 4.622 0 0 0 0-9.244zM10 13a3 3 0 1 1 0-6 3 3 0 0 1 0 6zm4.805-8.884a1.08 1.08 0 1 0-.001 2.161 1.08 1.08 0 0 0 0-2.16z"/></svg>