<svg width="72" height="24" viewBox="0 0 72 24" fill="none" xmlns="http://www.w3.org/2000/svg">
<path fill-rule="evenodd" clip-rule="evenodd" d="M18.039 17.9842V6.47877C18.039 3.45293 15.586 1 12.5602 1V1L1 1V6.47877H8.48325C10.7349 6.47877 12.5602 8.30408 12.5602 10.5557L12.5602 13.9072C12.5602 16.1589 14.3855 17.9842 16.6371 17.9842H18.039Z" stroke="white"/>
<path fill-rule="evenodd" clip-rule="evenodd" d="M7.08213 6.47846V17.9839C7.08213 21.0097 9.53505 23.4626 12.5609 23.4626V23.4626L24.1211 23.4626V17.9839H16.6378C14.3862 17.9839 12.5609 16.1586 12.5609 13.9069L12.5609 10.5554C12.5609 8.30378 10.7356 6.47846 8.48395 6.47846H7.08213Z" stroke="white"/>
<path d="M62.7031 16.8419L65.6745 8.68507C65.9074 8.04594 66.515 7.62061 67.1952 7.62061C67.8754 7.62061 68.483 8.04594 68.7159 8.68507L71.6873 16.8419H70.3755C69.9071 16.8419 69.4903 16.5446 69.3377 16.1018L67.182 9.84688L65.0264 16.1018C64.8738 16.5446 64.4569 16.8419 63.9885 16.8419H62.7031ZM64.1654 14.8264L64.6923 13.2983H69.5269L70.0406 14.8264H64.1654Z" fill="white"/>
<path d="M57.6486 16.8419C56.7392 16.8419 56.002 16.1046 56.002 15.1952V7.62061H59.5851C60.3403 7.62061 60.9639 7.74795 61.4557 8.00263C61.9563 8.25731 62.3295 8.6086 62.5754 9.05649C62.8213 9.4956 62.9442 9.99179 62.9442 10.5451C62.9442 11.0632 62.8257 11.5418 62.5886 11.9809C62.3515 12.4201 61.987 12.7757 61.4952 13.048C61.0034 13.3202 60.3667 13.4563 59.5851 13.4563H57.9779V16.8419H57.6486ZM57.9779 11.8756H59.4533C59.9715 11.8756 60.3447 11.757 60.5731 11.5199C60.8102 11.274 60.9287 10.949 60.9287 10.5451C60.9287 10.1323 60.8102 9.81175 60.5731 9.58342C60.3447 9.3463 59.9715 9.22774 59.4533 9.22774H57.9779V11.8756Z" fill="white"/>
<path d="M44.1543 16.8419V7.62061H45.4936C46.1247 7.62061 46.7003 7.98129 46.9754 8.5492L49.2128 13.1665L51.4255 8.55492C51.6995 7.98388 52.2767 7.62061 52.9101 7.62061H54.2318V16.8419H53.9025C52.9931 16.8419 52.2558 16.1046 52.2558 15.1952V10.9534L49.99 15.5509H48.4093L46.1303 10.9534V15.1952C46.1303 16.1046 45.3931 16.8419 44.4836 16.8419H44.1543Z" fill="white"/>
<path d="M38.0921 17.0001C37.1875 17.0001 36.3928 16.7981 35.7077 16.3941C35.0227 15.9901 34.4826 15.4325 34.0874 14.7211C33.701 14.001 33.5078 13.171 33.5078 12.2314C33.5078 11.2917 33.701 10.4661 34.0874 9.75479C34.4826 9.03465 35.0227 8.47259 35.7077 8.06862C36.3928 7.66464 37.1875 7.46265 38.0921 7.46265C38.9967 7.46265 39.7958 7.66464 40.4896 8.06862C41.1834 8.47259 41.7191 9.03465 42.0968 9.75479C42.4832 10.4661 42.6764 11.2917 42.6764 12.2314C42.6764 13.171 42.4832 14.001 42.0968 14.7211C41.7191 15.4325 41.1834 15.9901 40.4896 16.3941C39.7958 16.7981 38.9967 17.0001 38.0921 17.0001ZM38.0921 15.2217C38.6278 15.2217 39.0845 15.0987 39.4621 14.8528C39.8485 14.6069 40.1471 14.2644 40.3579 13.8253C40.5687 13.3774 40.6741 12.8461 40.6741 12.2314C40.6741 11.6166 40.5687 11.0897 40.3579 10.6506C40.1471 10.2027 39.8485 9.86018 39.4621 9.62306C39.0845 9.37716 38.6278 9.25421 38.0921 9.25421C37.5739 9.25421 37.1217 9.37716 36.7353 9.62306C36.3488 9.86018 36.0502 10.2027 35.8395 10.6506C35.6287 11.0897 35.5233 11.6166 35.5233 12.2314C35.5233 12.8461 35.6287 13.3774 35.8395 13.8253C36.0502 14.2644 36.3488 14.6069 36.7353 14.8528C37.1217 15.0987 37.5739 15.2217 38.0921 15.2217Z" fill="white"/>
<path d="M28.7677 16.8419C27.8583 16.8419 27.1211 16.1046 27.1211 15.1952V7.62061H27.4504C28.3599 7.62061 29.0971 8.35783 29.0971 9.26724V14.7649C29.0971 15.068 29.3428 15.3138 29.646 15.3138H33.0754V16.8419H28.7677Z" fill="white"/>
</svg>
