<svg xmlns="http://www.w3.org/2000/svg" xmlns:xlink="http://www.w3.org/1999/xlink" width="90" zoomAndPan="magnify" viewBox="0 0 52.5 52.499999" height="90" preserveAspectRatio="xMidYMid meet" version="1.0"><defs><clipPath id="cab20e44af"><path d="M 11 3.078125 L 33 3.078125 L 33 25 L 11 25 Z M 11 3.078125 " clip-rule="nonzero"/></clipPath><clipPath id="02d383086a"><path d="M 32.789062 24.789062 L 32.789062 10.089844 C 32.789062 6.222656 29.683594 3.089844 25.851562 3.089844 L 11.210938 3.089844 L 11.210938 10.089844 L 20.6875 10.089844 C 23.539062 10.089844 25.851562 12.421875 25.851562 15.296875 L 25.851562 19.578125 C 25.851562 22.457031 28.164062 24.789062 31.015625 24.789062 Z M 32.789062 24.789062 " clip-rule="evenodd"/></clipPath><linearGradient x1="12.021499" gradientTransform="matrix(0.600446, 0, 0, 0.605732, 3.993606, 3.089436)" y1="6.124" x2="47.958301" gradientUnits="userSpaceOnUse" y2="6.124" id="a54bafbbae"><stop stop-opacity="1" stop-color="rgb(88.999939%, 12.89978%, 100%)" offset="0"/><stop stop-opacity="1" stop-color="rgb(28.199768%, 2.69928%, 67.799377%)" offset="1"/></linearGradient><clipPath id="3cddbe1e8f"><path d="M 38 39 L 47.824219 39 L 47.824219 49 L 38 49 Z M 38 39 " clip-rule="nonzero"/></clipPath><clipPath id="59f94aa2e8"><path d="M 10 39 L 20 39 L 20 49.136719 L 10 49.136719 Z M 10 39 " clip-rule="nonzero"/></clipPath><clipPath id="6c4b70522f"><path d="M 3.992188 39 L 10 39 L 10 49 L 3.992188 49 Z M 3.992188 39 " clip-rule="nonzero"/></clipPath></defs><g clip-path="url(#cab20e44af)"><g clip-path="url(#02d383086a)"><path fill="url(#a54bafbbae)" d="M 11.210938 3.089844 L 11.210938 24.789062 L 32.789062 24.789062 L 32.789062 3.089844 Z M 11.210938 3.089844 " fill-rule="nonzero"/></g></g><path fill="#ffffff" d="M 18.914062 10.089844 L 18.914062 24.789062 C 18.914062 28.652344 22.019531 31.785156 25.851562 31.785156 L 40.492188 31.785156 L 40.492188 24.789062 L 31.015625 24.789062 C 28.164062 24.789062 25.851562 22.457031 25.851562 19.578125 L 25.851562 15.296875 C 25.851562 12.421875 23.539062 10.089844 20.6875 10.089844 Z M 18.914062 10.089844 " fill-opacity="1" fill-rule="evenodd"/><g clip-path="url(#3cddbe1e8f)"><path fill="#ffffff" d="M 38.898438 48.941406 L 41.8125 40.871094 C 42.039062 40.238281 42.636719 39.816406 43.304688 39.816406 C 43.972656 39.816406 44.566406 40.238281 44.796875 40.871094 L 47.710938 48.941406 L 46.421875 48.941406 C 45.964844 48.941406 45.554688 48.648438 45.40625 48.210938 L 43.289062 42.019531 L 41.175781 48.210938 C 41.027344 48.648438 40.617188 48.941406 40.160156 48.941406 Z M 40.332031 46.949219 L 40.847656 45.4375 L 45.589844 45.4375 L 46.09375 46.949219 Z M 40.332031 46.949219 " fill-opacity="1" fill-rule="nonzero"/></g><path fill="#ffffff" d="M 33.9375 48.941406 C 33.046875 48.941406 32.324219 48.214844 32.324219 47.3125 L 32.324219 39.816406 L 35.839844 39.816406 C 36.578125 39.816406 37.191406 39.945312 37.675781 40.195312 C 38.164062 40.449219 38.53125 40.796875 38.773438 41.238281 C 39.011719 41.671875 39.132812 42.164062 39.132812 42.710938 C 39.132812 43.222656 39.019531 43.699219 38.785156 44.132812 C 38.550781 44.566406 38.195312 44.917969 37.710938 45.1875 C 37.230469 45.457031 36.605469 45.59375 35.839844 45.59375 L 34.261719 45.59375 L 34.261719 48.941406 Z M 34.261719 44.027344 L 35.710938 44.027344 C 36.21875 44.027344 36.585938 43.910156 36.808594 43.675781 C 37.039062 43.433594 37.15625 43.109375 37.15625 42.710938 C 37.15625 42.304688 37.039062 41.984375 36.808594 41.761719 C 36.585938 41.523438 36.21875 41.40625 35.710938 41.40625 L 34.261719 41.40625 Z M 34.261719 44.027344 " fill-opacity="1" fill-rule="nonzero"/><path fill="#ffffff" d="M 20.703125 48.941406 L 20.703125 39.816406 L 22.015625 39.816406 C 22.632812 39.816406 23.199219 40.175781 23.46875 40.738281 L 25.664062 45.304688 L 27.835938 40.742188 C 28.101562 40.175781 28.667969 39.816406 29.289062 39.816406 L 30.585938 39.816406 L 30.585938 48.941406 L 30.265625 48.941406 C 29.371094 48.941406 28.648438 48.214844 28.648438 47.3125 L 28.648438 43.117188 L 26.425781 47.664062 L 24.875 47.664062 L 22.640625 43.117188 L 22.640625 47.3125 C 22.640625 48.214844 21.917969 48.941406 21.023438 48.941406 Z M 20.703125 48.941406 " fill-opacity="1" fill-rule="nonzero"/><g clip-path="url(#59f94aa2e8)"><path fill="#ffffff" d="M 14.753906 49.097656 C 13.867188 49.097656 13.089844 48.898438 12.417969 48.5 C 11.746094 48.101562 11.214844 47.546875 10.828125 46.84375 C 10.449219 46.132812 10.257812 45.308594 10.257812 44.378906 C 10.257812 43.449219 10.449219 42.632812 10.828125 41.929688 C 11.214844 41.214844 11.746094 40.660156 12.417969 40.261719 C 13.089844 39.859375 13.867188 39.660156 14.753906 39.660156 C 15.644531 39.660156 16.425781 39.859375 17.109375 40.261719 C 17.789062 40.660156 18.3125 41.214844 18.683594 41.929688 C 19.0625 42.632812 19.253906 43.449219 19.253906 44.378906 C 19.253906 45.308594 19.0625 46.132812 18.683594 46.84375 C 18.3125 47.546875 17.789062 48.101562 17.109375 48.5 C 16.425781 48.898438 15.644531 49.097656 14.753906 49.097656 Z M 14.753906 47.339844 C 15.28125 47.339844 15.730469 47.21875 16.097656 46.972656 C 16.480469 46.730469 16.773438 46.390625 16.976562 45.957031 C 17.183594 45.515625 17.289062 44.988281 17.289062 44.378906 C 17.289062 43.773438 17.183594 43.25 16.976562 42.816406 C 16.773438 42.371094 16.480469 42.035156 16.097656 41.800781 C 15.730469 41.554688 15.28125 41.433594 14.753906 41.433594 C 14.246094 41.433594 13.804688 41.554688 13.425781 41.800781 C 13.046875 42.035156 12.753906 42.371094 12.546875 42.816406 C 12.339844 43.25 12.234375 43.773438 12.234375 44.378906 C 12.234375 44.988281 12.339844 45.515625 12.546875 45.957031 C 12.753906 46.390625 13.046875 46.730469 13.425781 46.972656 C 13.804688 47.21875 14.246094 47.339844 14.753906 47.339844 Z M 14.753906 47.339844 " fill-opacity="1" fill-rule="nonzero"/></g><g clip-path="url(#6c4b70522f)"><path fill="#ffffff" d="M 5.609375 48.941406 C 4.714844 48.941406 3.992188 48.214844 3.992188 47.3125 L 3.992188 39.816406 L 4.316406 39.816406 C 5.207031 39.816406 5.933594 40.546875 5.933594 41.445312 L 5.933594 46.886719 C 5.933594 47.1875 6.171875 47.429688 6.46875 47.429688 L 9.835938 47.429688 L 9.835938 48.941406 Z M 5.609375 48.941406 " fill-opacity="1" fill-rule="nonzero"/></g></svg>
