<svg xmlns="http://www.w3.org/2000/svg" width="21" height="20" fill="none"><path fill="#fff" d="M18.08 5.217a4.42 4.42 0 0 1-2.37-1.354 4.272 4.272 0 0 1-1.091-2.466V1h-3.162v12.303a2.572 2.572 0 0 1-.503 1.517 2.655 2.655 0 0 1-1.31.945 2.709 2.709 0 0 1-1.627.02 2.66 2.66 0 0 1-1.334-.913 2.57 2.57 0 0 1-.055-3.078c.326-.453.79-.792 1.325-.968a2.708 2.708 0 0 1 1.652-.013v-3.15a5.91 5.91 0 0 0-3.494.599 5.751 5.751 0 0 0-2.488 2.478 5.597 5.597 0 0 0-.555 3.435 5.655 5.655 0 0 0 1.586 3.11 5.845 5.845 0 0 0 2.972 1.596 5.923 5.923 0 0 0 3.375-.302 5.789 5.789 0 0 0 2.63-2.097 5.62 5.62 0 0 0 .988-3.178V7.018A7.613 7.613 0 0 0 19 8.39V5.31a4.52 4.52 0 0 1-.92-.094z"/></svg>