<svg xmlns="http://www.w3.org/2000/svg" width="20" height="20" fill="none"><path fill="#fff" fill-rule="evenodd" d="M14.958 17.153a5.187 5.187 0 0 0 1.144-5.585c-.428-1.03-1.242-1.86-2.341-2.405a6.048 6.048 0 0 0-.125-.06l-.002-.018c-.088-1.247-.467-2.254-1.124-2.96-.684-.736-1.648-1.123-2.83-1.13h-.032c-1.425 0-2.622.63-3.358 1.783l-.103.16 1.579 1.118.112-.177c.469-.734 1.203-.896 1.77-.896h.02c.71.004 1.21.216 1.528.596.194.233.342.547.435.948a9.731 9.731 0 0 0-1.911-.065c-1.118.066-2.054.437-2.701 1.043-.65.61-.997 1.445-.947 2.407a3.01 3.01 0 0 0 1.334 2.38c.68.463 1.55.685 2.445.635 1.182-.067 2.127-.537 2.785-1.403.445-.585.737-1.317.89-2.206.379.288.658.638.825 1.04.35.842.374 2.238-.735 3.381-.981 1.012-2.16 1.459-3.987 1.473-2.025-.016-3.525-.684-4.497-1.96C4.214 14.048 3.726 12.29 3.708 10c.018-2.29.506-4.048 1.424-5.252.972-1.276 2.472-1.944 4.497-1.96 2.04.016 3.569.687 4.58 1.972.499.633.88 1.435 1.131 2.38l.052.195 1.852-.51-.05-.19c-.32-1.212-.822-2.262-1.51-3.136-1.4-1.778-3.444-2.68-6.049-2.7h-.013C7.023.82 5 1.725 3.638 3.512 2.43 5.095 1.82 7.282 1.8 9.992v.016c.02 2.71.631 4.897 1.838 6.48 1.361 1.787 3.385 2.693 5.984 2.712h.013c2.31-.017 3.962-.644 5.323-2.047Zm-10.615-.154a6.639 6.639 0 0 1-.546-.632C2.625 14.83 2.02 12.69 2 10.007v-.014c.02-2.682.625-4.823 1.797-6.36C5.114 1.902 7.074 1.017 9.624 1h.01c2.138.015 3.875.636 5.18 1.847C13.509 1.636 11.772 1.015 9.634 1h-.01c-2.55.018-4.51.904-5.827 2.632C2.625 5.171 2.02 7.311 2 9.994v.012c.02 2.683.625 4.823 1.797 6.362.171.224.353.434.546.63Zm10.528-6.84a5.082 5.082 0 0 0-1.428-.924 5.084 5.084 0 0 1 1.428.923Zm-2.674-4.065c-.627-.581-1.476-.892-2.518-.9h-.031c-1.361 0-2.493.6-3.19 1.692.697-1.092 1.83-1.691 3.19-1.691h.03c1.043.007 1.892.318 2.519.899Zm-.975 1.22c.045.044.088.09.128.137.091.11.173.235.244.374.134.264.23.579.288.943a9.277 9.277 0 0 0-2.15-.106c-2.163.128-3.554 1.43-3.46 3.24-.094-1.81 1.297-3.112 3.46-3.24a9.466 9.466 0 0 1 2.15.106 4.26 4.26 0 0 0-.039-.21 2.962 2.962 0 0 0-.25-.733 1.993 1.993 0 0 0-.243-.374 1.692 1.692 0 0 0-.128-.136Zm2.652 4.035c.291.268.516.58.662.932.375.903.397 2.388-.777 3.598-1.027 1.06-2.263 1.518-4.13 1.533-1.663-.013-3.001-.458-3.99-1.325.989.867 2.327 1.312 3.99 1.325 1.867-.014 3.103-.473 4.13-1.533 1.174-1.21 1.152-2.695.777-3.598a2.646 2.646 0 0 0-.662-.932Zm.015-7.24c.17.162.329.338.477.527.494.627.872 1.407 1.13 2.313l.037.14c-.257-.966-.648-1.794-1.166-2.453a5.133 5.133 0 0 0-.478-.528Zm-2.908 8.365c-.352.341-.79.442-1.234.467-.443.026-.885-.065-1.214-.26-.325-.194-.536-.483-.556-.875a1.062 1.062 0 0 1 .357-.854c.276-.253.745-.46 1.495-.505.174-.01.345-.016.513-.016.487 0 .943.043 1.363.125-.104 1.022-.39 1.593-.724 1.918Zm.939-2.077c-.18 2.316-1.233 2.691-2.162 2.744-.594.035-1.203-.125-1.586-.481.383.356.992.516 1.587.481.928-.052 1.981-.428 2.161-2.744Z" clip-rule="evenodd"/></svg>